<mxfile host="app.diagrams.net" agent="Mozilla/5.0 (Macintosh; Intel Mac OS X 10_15_7) AppleWebKit/537.36 (KHTML, like Gecko) Chrome/134.0.0.0 Safari/537.36" version="26.1.0">
  <diagram name="Page-1" id="GoeDKbmdN92qko5kWnKf">
    <mxGraphModel dx="2293" dy="687" grid="1" gridSize="10" guides="1" tooltips="1" connect="1" arrows="1" fold="1" page="1" pageScale="1" pageWidth="827" pageHeight="1169" math="0" shadow="0">
      <root>
        <mxCell id="0" />
        <mxCell id="1" parent="0" />
        <mxCell id="SaRnsYtcrHhQaOOG1sa7-2" value="" style="rounded=0;whiteSpace=wrap;html=1;" vertex="1" parent="1">
          <mxGeometry x="-320" y="20" width="1210" height="850" as="geometry" />
        </mxCell>
        <mxCell id="xGvc5hCl1qdH0Zedi4bK-1" value="Terraform State" style="outlineConnect=0;dashed=0;verticalLabelPosition=bottom;verticalAlign=top;align=center;html=1;shape=mxgraph.aws3.s3;fillColor=#E05243;gradientColor=none;" parent="1" vertex="1">
          <mxGeometry x="110" y="40" width="50" height="60" as="geometry" />
        </mxCell>
        <mxCell id="xGvc5hCl1qdH0Zedi4bK-2" value="sdvi-partner-silo-storage" style="outlineConnect=0;dashed=0;verticalLabelPosition=bottom;verticalAlign=top;align=center;html=1;shape=mxgraph.aws3.s3;fillColor=#E05243;gradientColor=none;" parent="1" vertex="1">
          <mxGeometry x="90" y="273" width="50" height="60" as="geometry" />
        </mxCell>
        <mxCell id="xGvc5hCl1qdH0Zedi4bK-14" style="edgeStyle=orthogonalEdgeStyle;rounded=0;orthogonalLoop=1;jettySize=auto;html=1;entryX=-0.003;entryY=0.448;entryDx=0;entryDy=0;entryPerimeter=0;" parent="1" source="xGvc5hCl1qdH0Zedi4bK-2" target="xGvc5hCl1qdH0Zedi4bK-11" edge="1">
          <mxGeometry relative="1" as="geometry" />
        </mxCell>
        <mxCell id="xGvc5hCl1qdH0Zedi4bK-20" value="sdvi-notify-&lt;span style=&quot;color: rgb(0, 0, 0);&quot;&gt;sdvi-partner-silo-storage&lt;/span&gt;" style="sketch=0;points=[[0,0,0],[0.25,0,0],[0.5,0,0],[0.75,0,0],[1,0,0],[0,1,0],[0.25,1,0],[0.5,1,0],[0.75,1,0],[1,1,0],[0,0.25,0],[0,0.5,0],[0,0.75,0],[1,0.25,0],[1,0.5,0],[1,0.75,0]];outlineConnect=0;fontColor=#232F3E;fillColor=#E7157B;strokeColor=#ffffff;dashed=0;verticalLabelPosition=bottom;verticalAlign=top;align=center;html=1;fontSize=12;fontStyle=0;aspect=fixed;shape=mxgraph.aws4.resourceIcon;resIcon=mxgraph.aws4.sns;" parent="1" vertex="1">
          <mxGeometry x="199.99727272727267" y="609.25" width="50" height="50" as="geometry" />
        </mxCell>
        <mxCell id="rrwJDhQOBMlgbJ-JU8yh-1" value="sdvi-partner-silo-api-gw" style="outlineConnect=0;dashed=0;verticalLabelPosition=bottom;verticalAlign=top;align=center;html=1;shape=mxgraph.aws3.api_gateway;fillColor=#D9A741;gradientColor=none;" parent="1" vertex="1">
          <mxGeometry x="-210" y="609.25" width="50" height="50.75" as="geometry" />
        </mxCell>
        <mxCell id="rrwJDhQOBMlgbJ-JU8yh-3" style="edgeStyle=orthogonalEdgeStyle;rounded=0;orthogonalLoop=1;jettySize=auto;html=1;entryX=0;entryY=0.5;entryDx=0;entryDy=0;entryPerimeter=0;" parent="1" source="rrwJDhQOBMlgbJ-JU8yh-1" target="SaRnsYtcrHhQaOOG1sa7-40" edge="1">
          <mxGeometry relative="1" as="geometry">
            <mxPoint x="-70" y="640" as="targetPoint" />
          </mxGeometry>
        </mxCell>
        <mxCell id="rrwJDhQOBMlgbJ-JU8yh-4" value="/master/sns-proxy" style="edgeLabel;html=1;align=center;verticalAlign=middle;resizable=0;points=[];" parent="rrwJDhQOBMlgbJ-JU8yh-3" vertex="1" connectable="0">
          <mxGeometry x="-0.2569" relative="1" as="geometry">
            <mxPoint as="offset" />
          </mxGeometry>
        </mxCell>
        <mxCell id="SaRnsYtcrHhQaOOG1sa7-3" value="" style="rounded=0;whiteSpace=wrap;html=1;" vertex="1" parent="1">
          <mxGeometry x="1000" y="20" width="740" height="850" as="geometry" />
        </mxCell>
        <mxCell id="SaRnsYtcrHhQaOOG1sa7-4" value="" style="shape=image;imageAspect=0;aspect=fixed;verticalLabelPosition=bottom;verticalAlign=top;image=https://tmtinsights.com/wp-content/uploads/2023/08/SDVI-Rally-Logo-RGB-1024x541.png;" vertex="1" parent="1">
          <mxGeometry x="1000" y="20" width="151.27" height="80" as="geometry" />
        </mxCell>
        <mxCell id="SaRnsYtcrHhQaOOG1sa7-5" value="" style="shape=image;imageAspect=0;aspect=fixed;verticalLabelPosition=bottom;verticalAlign=top;image=https://encrypted-tbn0.gstatic.com/images?q=tbn:ANd9GcTaQrpnyu-Mu8DdT11kWGeZ3diZXHqLmmVpIA&amp;s;" vertex="1" parent="1">
          <mxGeometry x="-319" y="21" width="183.34" height="50" as="geometry" />
        </mxCell>
        <mxCell id="SaRnsYtcrHhQaOOG1sa7-18" style="edgeStyle=orthogonalEdgeStyle;rounded=0;orthogonalLoop=1;jettySize=auto;html=1;" edge="1" parent="1" source="SaRnsYtcrHhQaOOG1sa7-6" target="SaRnsYtcrHhQaOOG1sa7-16">
          <mxGeometry relative="1" as="geometry">
            <Array as="points">
              <mxPoint x="1170" y="235" />
              <mxPoint x="1170" y="190" />
            </Array>
          </mxGeometry>
        </mxCell>
        <mxCell id="SaRnsYtcrHhQaOOG1sa7-19" style="edgeStyle=orthogonalEdgeStyle;rounded=0;orthogonalLoop=1;jettySize=auto;html=1;" edge="1" parent="1" source="SaRnsYtcrHhQaOOG1sa7-6" target="SaRnsYtcrHhQaOOG1sa7-17">
          <mxGeometry relative="1" as="geometry" />
        </mxCell>
        <mxCell id="SaRnsYtcrHhQaOOG1sa7-6" value="RSL User Incoming" style="editableCssRules=.*;html=1;shape=image;verticalLabelPosition=bottom;labelBackgroundColor=#ffffff;verticalAlign=top;aspect=fixed;imageAspect=0;image=data:image/svg+xml,PHN2ZyB4bWxucz0iaHR0cDovL3d3dy53My5vcmcvMjAwMC9zdmciIHhtbG5zOnY9Imh0dHBzOi8vdmVjdGEuaW8vbmFubyIgd2lkdGg9IjQyNCIgaGVpZ2h0PSI0MjQiIHZpZXdCb3g9IjAgMCA0MjQgNDI0Ij4mI3hhOwk8c3R5bGUgdHlwZT0idGV4dC9jc3MiPiYjeGE7CS5zdDB7ZmlsbDojNDI4NWY0O30mI3hhOwk8L3N0eWxlPiYjeGE7CTxwYXRoIGNsYXNzPSJzdDAiIGQ9Ik00MjQgMHY0MjRIMFYwek0yMTIgOTcuODQ2Yy0zNy44ODQgMC03MC4xNjQgMjMuOTktODIuNDc4IDU3LjYwOGgwbC0zLjQwMy4wMDFjLTQyLjYzNCAwLTc3LjE5NiAzNC41NjItNzcuMTk2IDc3LjE5NnMzNC41NjIgNzcuMTk2IDc3LjE5NiA3Ny4xOTZoMCAxNzEuNzYzYzQyLjYzNCAwIDc3LjE5Ni0zNC41NjIgNzcuMTk2LTc3LjE5NnMtMzQuNTYyLTc3LjE5Ni03Ny4xOTYtNzcuMTk2aDBsLTMuNDAzLS4wMDFDMjgyLjE2NCAxMjEuODM3IDI0OS44ODQgOTcuODQ2IDIxMiA5Ny44NDZ6IiBmaWxsLXJ1bGU9ImV2ZW5vZGQiLz4mI3hhOzwvc3ZnPg==;" vertex="1" parent="1">
          <mxGeometry x="1100" y="215" width="40" height="40" as="geometry" />
        </mxCell>
        <mxCell id="SaRnsYtcrHhQaOOG1sa7-7" style="edgeStyle=orthogonalEdgeStyle;rounded=0;orthogonalLoop=1;jettySize=auto;html=1;entryX=0;entryY=0.5;entryDx=0;entryDy=0;exitX=0.5;exitY=1;exitDx=0;exitDy=0;exitPerimeter=0;" edge="1" parent="1" source="xGvc5hCl1qdH0Zedi4bK-20" target="SaRnsYtcrHhQaOOG1sa7-6">
          <mxGeometry relative="1" as="geometry">
            <Array as="points">
              <mxPoint x="225" y="740" />
              <mxPoint x="850" y="740" />
              <mxPoint x="850" y="235" />
            </Array>
          </mxGeometry>
        </mxCell>
        <mxCell id="SaRnsYtcrHhQaOOG1sa7-13" value="RSL User Processed" style="editableCssRules=.*;html=1;shape=image;verticalLabelPosition=bottom;labelBackgroundColor=#ffffff;verticalAlign=top;aspect=fixed;imageAspect=0;image=data:image/svg+xml,PHN2ZyB4bWxucz0iaHR0cDovL3d3dy53My5vcmcvMjAwMC9zdmciIHhtbG5zOnY9Imh0dHBzOi8vdmVjdGEuaW8vbmFubyIgd2lkdGg9IjQyNCIgaGVpZ2h0PSI0MjQiIHZpZXdCb3g9IjAgMCA0MjQgNDI0Ij4mI3hhOwk8c3R5bGUgdHlwZT0idGV4dC9jc3MiPiYjeGE7CS5zdDB7ZmlsbDojNDI4NWY0O30mI3hhOwk8L3N0eWxlPiYjeGE7CTxwYXRoIGNsYXNzPSJzdDAiIGQ9Ik00MjQgMHY0MjRIMFYwek0yMTIgOTcuODQ2Yy0zNy44ODQgMC03MC4xNjQgMjMuOTktODIuNDc4IDU3LjYwOGgwbC0zLjQwMy4wMDFjLTQyLjYzNCAwLTc3LjE5NiAzNC41NjItNzcuMTk2IDc3LjE5NnMzNC41NjIgNzcuMTk2IDc3LjE5NiA3Ny4xOTZoMCAxNzEuNzYzYzQyLjYzNCAwIDc3LjE5Ni0zNC41NjIgNzcuMTk2LTc3LjE5NnMtMzQuNTYyLTc3LjE5Ni03Ny4xOTYtNzcuMTk2aDBsLTMuNDAzLS4wMDFDMjgyLjE2NCAxMjEuODM3IDI0OS44ODQgOTcuODQ2IDIxMiA5Ny44NDZ6IiBmaWxsLXJ1bGU9ImV2ZW5vZGQiLz4mI3hhOzwvc3ZnPg==;" vertex="1" parent="1">
          <mxGeometry x="1100" y="310" width="40" height="40" as="geometry" />
        </mxCell>
        <mxCell id="SaRnsYtcrHhQaOOG1sa7-16" value="media trigger" style="sketch=0;outlineConnect=0;fontColor=#232F3E;gradientColor=none;fillColor=#E7157B;strokeColor=none;dashed=0;verticalLabelPosition=bottom;verticalAlign=top;align=center;html=1;fontSize=12;fontStyle=0;aspect=fixed;pointerEvents=1;shape=mxgraph.aws4.event;" vertex="1" parent="1">
          <mxGeometry x="1202" y="171" width="44" height="44" as="geometry" />
        </mxCell>
        <mxCell id="SaRnsYtcrHhQaOOG1sa7-17" value="metadata trigger" style="sketch=0;outlineConnect=0;fontColor=#232F3E;gradientColor=none;fillColor=#E7157B;strokeColor=none;dashed=0;verticalLabelPosition=bottom;verticalAlign=top;align=center;html=1;fontSize=12;fontStyle=0;aspect=fixed;pointerEvents=1;shape=mxgraph.aws4.event;" vertex="1" parent="1">
          <mxGeometry x="1202" y="250" width="44" height="44" as="geometry" />
        </mxCell>
        <mxCell id="SaRnsYtcrHhQaOOG1sa7-20" value="preset" style="sketch=0;aspect=fixed;pointerEvents=1;shadow=0;dashed=0;html=1;strokeColor=none;labelPosition=center;verticalLabelPosition=bottom;verticalAlign=top;align=center;fillColor=#00188D;shape=mxgraph.mscae.enterprise.code_file" vertex="1" parent="1">
          <mxGeometry x="1350" y="168" width="49" height="50" as="geometry" />
        </mxCell>
        <mxCell id="SaRnsYtcrHhQaOOG1sa7-21" style="edgeStyle=orthogonalEdgeStyle;rounded=0;orthogonalLoop=1;jettySize=auto;html=1;entryX=0;entryY=0.5;entryDx=0;entryDy=0;entryPerimeter=0;" edge="1" parent="1" source="SaRnsYtcrHhQaOOG1sa7-16" target="SaRnsYtcrHhQaOOG1sa7-20">
          <mxGeometry relative="1" as="geometry" />
        </mxCell>
        <mxCell id="SaRnsYtcrHhQaOOG1sa7-22" value="preset" style="sketch=0;aspect=fixed;pointerEvents=1;shadow=0;dashed=0;html=1;strokeColor=none;labelPosition=center;verticalLabelPosition=bottom;verticalAlign=top;align=center;fillColor=#00188D;shape=mxgraph.mscae.enterprise.code_file" vertex="1" parent="1">
          <mxGeometry x="1350" y="247" width="49" height="50" as="geometry" />
        </mxCell>
        <mxCell id="SaRnsYtcrHhQaOOG1sa7-23" style="edgeStyle=orthogonalEdgeStyle;rounded=0;orthogonalLoop=1;jettySize=auto;html=1;entryX=0;entryY=0.5;entryDx=0;entryDy=0;entryPerimeter=0;" edge="1" parent="1" source="SaRnsYtcrHhQaOOG1sa7-17" target="SaRnsYtcrHhQaOOG1sa7-22">
          <mxGeometry relative="1" as="geometry" />
        </mxCell>
        <mxCell id="SaRnsYtcrHhQaOOG1sa7-28" style="edgeStyle=orthogonalEdgeStyle;rounded=0;orthogonalLoop=1;jettySize=auto;html=1;entryX=1;entryY=0.5;entryDx=0;entryDy=0;" edge="1" parent="1" source="SaRnsYtcrHhQaOOG1sa7-24" target="SaRnsYtcrHhQaOOG1sa7-13">
          <mxGeometry relative="1" as="geometry">
            <Array as="points">
              <mxPoint x="1550" y="192" />
              <mxPoint x="1550" y="330" />
            </Array>
          </mxGeometry>
        </mxCell>
        <mxCell id="SaRnsYtcrHhQaOOG1sa7-24" value="preset" style="sketch=0;aspect=fixed;pointerEvents=1;shadow=0;dashed=0;html=1;strokeColor=none;labelPosition=center;verticalLabelPosition=bottom;verticalAlign=top;align=center;fillColor=#00188D;shape=mxgraph.mscae.enterprise.code_file" vertex="1" parent="1">
          <mxGeometry x="1440" y="167" width="49" height="50" as="geometry" />
        </mxCell>
        <mxCell id="SaRnsYtcrHhQaOOG1sa7-25" value="preset" style="sketch=0;aspect=fixed;pointerEvents=1;shadow=0;dashed=0;html=1;strokeColor=none;labelPosition=center;verticalLabelPosition=bottom;verticalAlign=top;align=center;fillColor=#00188D;shape=mxgraph.mscae.enterprise.code_file" vertex="1" parent="1">
          <mxGeometry x="1440" y="248" width="49" height="50" as="geometry" />
        </mxCell>
        <mxCell id="SaRnsYtcrHhQaOOG1sa7-26" style="edgeStyle=orthogonalEdgeStyle;rounded=0;orthogonalLoop=1;jettySize=auto;html=1;entryX=0;entryY=0.5;entryDx=0;entryDy=0;entryPerimeter=0;" edge="1" parent="1" source="SaRnsYtcrHhQaOOG1sa7-22" target="SaRnsYtcrHhQaOOG1sa7-25">
          <mxGeometry relative="1" as="geometry" />
        </mxCell>
        <mxCell id="SaRnsYtcrHhQaOOG1sa7-27" style="edgeStyle=orthogonalEdgeStyle;rounded=0;orthogonalLoop=1;jettySize=auto;html=1;entryX=0;entryY=0.5;entryDx=0;entryDy=0;entryPerimeter=0;" edge="1" parent="1" source="SaRnsYtcrHhQaOOG1sa7-20" target="SaRnsYtcrHhQaOOG1sa7-24">
          <mxGeometry relative="1" as="geometry" />
        </mxCell>
        <mxCell id="SaRnsYtcrHhQaOOG1sa7-29" value="notification preset" style="verticalLabelPosition=bottom;html=1;verticalAlign=top;align=center;strokeColor=none;fillColor=#00BEF2;shape=mxgraph.azure.unidentified_code_object;" vertex="1" parent="1">
          <mxGeometry x="1095" y="405" width="50" height="42.5" as="geometry" />
        </mxCell>
        <mxCell id="SaRnsYtcrHhQaOOG1sa7-31" value="preset" style="sketch=0;aspect=fixed;pointerEvents=1;shadow=0;dashed=0;html=1;strokeColor=none;labelPosition=center;verticalLabelPosition=bottom;verticalAlign=top;align=center;fillColor=#00188D;shape=mxgraph.mscae.enterprise.code_file" vertex="1" parent="1">
          <mxGeometry x="1202" y="400.5" width="49" height="50" as="geometry" />
        </mxCell>
        <mxCell id="SaRnsYtcrHhQaOOG1sa7-32" style="edgeStyle=orthogonalEdgeStyle;rounded=0;orthogonalLoop=1;jettySize=auto;html=1;entryX=0;entryY=0.5;entryDx=0;entryDy=0;entryPerimeter=0;" edge="1" parent="1" source="SaRnsYtcrHhQaOOG1sa7-29" target="SaRnsYtcrHhQaOOG1sa7-31">
          <mxGeometry relative="1" as="geometry" />
        </mxCell>
        <mxCell id="SaRnsYtcrHhQaOOG1sa7-33" value="preset" style="sketch=0;aspect=fixed;pointerEvents=1;shadow=0;dashed=0;html=1;strokeColor=none;labelPosition=center;verticalLabelPosition=bottom;verticalAlign=top;align=center;fillColor=#00188D;shape=mxgraph.mscae.enterprise.code_file" vertex="1" parent="1">
          <mxGeometry x="1301" y="401.25" width="49" height="50" as="geometry" />
        </mxCell>
        <mxCell id="SaRnsYtcrHhQaOOG1sa7-34" style="edgeStyle=orthogonalEdgeStyle;rounded=0;orthogonalLoop=1;jettySize=auto;html=1;entryX=0;entryY=0.5;entryDx=0;entryDy=0;entryPerimeter=0;" edge="1" parent="1" source="SaRnsYtcrHhQaOOG1sa7-31" target="SaRnsYtcrHhQaOOG1sa7-33">
          <mxGeometry relative="1" as="geometry" />
        </mxCell>
        <mxCell id="SaRnsYtcrHhQaOOG1sa7-35" value="notification preset" style="verticalLabelPosition=bottom;html=1;verticalAlign=top;align=center;strokeColor=none;fillColor=#00BEF2;shape=mxgraph.azure.unidentified_code_object;" vertex="1" parent="1">
          <mxGeometry x="1095" y="490" width="50" height="42.5" as="geometry" />
        </mxCell>
        <mxCell id="SaRnsYtcrHhQaOOG1sa7-36" style="edgeStyle=orthogonalEdgeStyle;rounded=0;orthogonalLoop=1;jettySize=auto;html=1;entryX=0.8;entryY=0.5;entryDx=0;entryDy=0;entryPerimeter=0;" edge="1" parent="1" source="SaRnsYtcrHhQaOOG1sa7-33" target="SaRnsYtcrHhQaOOG1sa7-35">
          <mxGeometry relative="1" as="geometry">
            <Array as="points">
              <mxPoint x="1325" y="511" />
            </Array>
          </mxGeometry>
        </mxCell>
        <mxCell id="xGvc5hCl1qdH0Zedi4bK-11" value="" style="points=[[0.25,0,0],[0.5,0,0],[0.75,0,0],[1,0.25,0],[1,0.5,0],[1,0.75,0],[0.75,1,0],[0.5,1,0],[0.25,1,0],[0,0.75,0],[0,0.5,0],[0,0.25,0]];shape=mxgraph.bpmn.task2;whiteSpace=wrap;rectStyle=rounded;size=10;html=1;container=0;expand=0;collapsible=0;taskMarker=abstract;isLoopStandard=1;" parent="1" vertex="1">
          <mxGeometry x="200" y="110" width="590" height="430" as="geometry" />
        </mxCell>
        <mxCell id="xGvc5hCl1qdH0Zedi4bK-7" style="edgeStyle=orthogonalEdgeStyle;rounded=0;orthogonalLoop=1;jettySize=auto;html=1;" parent="1" source="xGvc5hCl1qdH0Zedi4bK-3" target="xGvc5hCl1qdH0Zedi4bK-4" edge="1">
          <mxGeometry relative="1" as="geometry" />
        </mxCell>
        <mxCell id="xGvc5hCl1qdH0Zedi4bK-8" style="edgeStyle=orthogonalEdgeStyle;rounded=0;orthogonalLoop=1;jettySize=auto;html=1;" parent="1" source="xGvc5hCl1qdH0Zedi4bK-3" target="xGvc5hCl1qdH0Zedi4bK-5" edge="1">
          <mxGeometry relative="1" as="geometry">
            <Array as="points">
              <mxPoint x="339.45454545454544" y="280" />
              <mxPoint x="339.45454545454544" y="340" />
            </Array>
          </mxGeometry>
        </mxCell>
        <mxCell id="SaRnsYtcrHhQaOOG1sa7-39" style="edgeStyle=orthogonalEdgeStyle;rounded=0;orthogonalLoop=1;jettySize=auto;html=1;" edge="1" parent="1" source="xGvc5hCl1qdH0Zedi4bK-3" target="SaRnsYtcrHhQaOOG1sa7-38">
          <mxGeometry relative="1" as="geometry" />
        </mxCell>
        <mxCell id="xGvc5hCl1qdH0Zedi4bK-3" value="[user]" style="sketch=0;pointerEvents=1;shadow=0;dashed=0;html=1;strokeColor=none;labelPosition=center;verticalLabelPosition=bottom;verticalAlign=top;outlineConnect=0;align=center;shape=mxgraph.office.concepts.folder;fillColor=#2072B8;container=0;" parent="1" vertex="1">
          <mxGeometry x="253.63636363636363" y="257.5" width="53.63636363636363" height="45" as="geometry" />
        </mxCell>
        <mxCell id="xGvc5hCl1qdH0Zedi4bK-10" style="edgeStyle=orthogonalEdgeStyle;rounded=0;orthogonalLoop=1;jettySize=auto;html=1;" parent="1" source="xGvc5hCl1qdH0Zedi4bK-4" target="xGvc5hCl1qdH0Zedi4bK-9" edge="1">
          <mxGeometry relative="1" as="geometry" />
        </mxCell>
        <mxCell id="SaRnsYtcrHhQaOOG1sa7-9" style="edgeStyle=orthogonalEdgeStyle;rounded=0;orthogonalLoop=1;jettySize=auto;html=1;" edge="1" parent="1" source="xGvc5hCl1qdH0Zedi4bK-4" target="SaRnsYtcrHhQaOOG1sa7-8">
          <mxGeometry relative="1" as="geometry" />
        </mxCell>
        <mxCell id="xGvc5hCl1qdH0Zedi4bK-4" value="incoming" style="sketch=0;pointerEvents=1;shadow=0;dashed=0;html=1;strokeColor=none;labelPosition=center;verticalLabelPosition=bottom;verticalAlign=top;outlineConnect=0;align=center;shape=mxgraph.office.concepts.folder;fillColor=#2072B8;container=0;" parent="1" vertex="1">
          <mxGeometry x="372.7090909090909" y="212.5" width="53.63636363636363" height="45" as="geometry" />
        </mxCell>
        <mxCell id="xGvc5hCl1qdH0Zedi4bK-5" value="processed" style="sketch=0;pointerEvents=1;shadow=0;dashed=0;html=1;strokeColor=none;labelPosition=center;verticalLabelPosition=bottom;verticalAlign=top;outlineConnect=0;align=center;shape=mxgraph.office.concepts.folder;fillColor=#2072B8;container=0;" parent="1" vertex="1">
          <mxGeometry x="375.9272727272727" y="310" width="53.63636363636363" height="45" as="geometry" />
        </mxCell>
        <mxCell id="SaRnsYtcrHhQaOOG1sa7-8" value="s3:ObjectRemoved:*" style="sketch=0;outlineConnect=0;fontColor=#232F3E;gradientColor=none;fillColor=#E7157B;strokeColor=none;dashed=0;verticalLabelPosition=bottom;verticalAlign=top;align=center;html=1;fontSize=12;fontStyle=0;aspect=fixed;pointerEvents=1;shape=mxgraph.aws4.eventbridge_saas_partner_event_bus_resource;container=0;" vertex="1" parent="1">
          <mxGeometry x="489.99636363636364" y="170" width="54" height="54" as="geometry" />
        </mxCell>
        <mxCell id="xGvc5hCl1qdH0Zedi4bK-12" value="for each user" style="text;html=1;align=center;verticalAlign=middle;resizable=0;points=[];autosize=1;strokeColor=none;fillColor=none;container=0;" parent="1" vertex="1">
          <mxGeometry x="502.7631578947368" y="511.85185185185185" width="90" height="30" as="geometry" />
        </mxCell>
        <mxCell id="xGvc5hCl1qdH0Zedi4bK-15" value="topic_1_[user]" style="sketch=0;points=[[0,0,0],[0.25,0,0],[0.5,0,0],[0.75,0,0],[1,0,0],[0,1,0],[0.25,1,0],[0.5,1,0],[0.75,1,0],[1,1,0],[0,0.25,0],[0,0.5,0],[0,0.75,0],[1,0.25,0],[1,0.5,0],[1,0.75,0]];outlineConnect=0;fontColor=#232F3E;fillColor=#E7157B;strokeColor=#ffffff;dashed=0;verticalLabelPosition=bottom;verticalAlign=top;align=center;html=1;fontSize=12;fontStyle=0;aspect=fixed;shape=mxgraph.aws4.resourceIcon;resIcon=mxgraph.aws4.sns;container=0;" parent="1" vertex="1">
          <mxGeometry x="370" y="410" width="33" height="33" as="geometry" />
        </mxCell>
        <mxCell id="xGvc5hCl1qdH0Zedi4bK-19" value="topic_2_[user]" style="sketch=0;points=[[0,0,0],[0.25,0,0],[0.5,0,0],[0.75,0,0],[1,0,0],[0,1,0],[0.25,1,0],[0.5,1,0],[0.75,1,0],[1,1,0],[0,0.25,0],[0,0.5,0],[0,0.75,0],[1,0.25,0],[1,0.5,0],[1,0.75,0]];outlineConnect=0;fontColor=#232F3E;fillColor=#E7157B;strokeColor=#ffffff;dashed=0;verticalLabelPosition=bottom;verticalAlign=top;align=center;html=1;fontSize=12;fontStyle=0;aspect=fixed;shape=mxgraph.aws4.resourceIcon;resIcon=mxgraph.aws4.sns;container=0;" parent="1" vertex="1">
          <mxGeometry x="370" y="467" width="33" height="33" as="geometry" />
        </mxCell>
        <mxCell id="xGvc5hCl1qdH0Zedi4bK-9" value="s3:ObjectCreated:*" style="sketch=0;outlineConnect=0;fontColor=#232F3E;gradientColor=none;fillColor=#E7157B;strokeColor=none;dashed=0;verticalLabelPosition=bottom;verticalAlign=top;align=center;html=1;fontSize=12;fontStyle=0;aspect=fixed;pointerEvents=1;shape=mxgraph.aws4.eventbridge_saas_partner_event_bus_resource;container=0;" parent="1" vertex="1">
          <mxGeometry x="489.6363636363636" y="250" width="54" height="54" as="geometry" />
        </mxCell>
        <mxCell id="SaRnsYtcrHhQaOOG1sa7-11" value="" style="endArrow=none;dashed=1;html=1;dashPattern=1 3;strokeWidth=2;rounded=0;entryX=0.5;entryY=0;entryDx=0;entryDy=0;" edge="1" parent="1" source="xGvc5hCl1qdH0Zedi4bK-4" target="SaRnsYtcrHhQaOOG1sa7-6">
          <mxGeometry width="50" height="50" relative="1" as="geometry">
            <mxPoint x="710" y="380" as="sourcePoint" />
            <mxPoint x="760" y="330" as="targetPoint" />
            <Array as="points">
              <mxPoint x="400" y="130" />
              <mxPoint x="1120" y="130" />
            </Array>
          </mxGeometry>
        </mxCell>
        <mxCell id="SaRnsYtcrHhQaOOG1sa7-12" value="mapping" style="edgeLabel;html=1;align=center;verticalAlign=middle;resizable=0;points=[];container=0;" vertex="1" connectable="0" parent="SaRnsYtcrHhQaOOG1sa7-11">
          <mxGeometry x="-0.4384" y="2" relative="1" as="geometry">
            <mxPoint as="offset" />
          </mxGeometry>
        </mxCell>
        <mxCell id="xGvc5hCl1qdH0Zedi4bK-21" style="edgeStyle=orthogonalEdgeStyle;rounded=0;orthogonalLoop=1;jettySize=auto;html=1;entryX=1;entryY=0.5;entryDx=0;entryDy=0;entryPerimeter=0;" parent="1" source="xGvc5hCl1qdH0Zedi4bK-9" target="xGvc5hCl1qdH0Zedi4bK-20" edge="1">
          <mxGeometry relative="1" as="geometry">
            <Array as="points">
              <mxPoint x="520" y="635" />
            </Array>
          </mxGeometry>
        </mxCell>
        <mxCell id="SaRnsYtcrHhQaOOG1sa7-10" style="edgeStyle=orthogonalEdgeStyle;rounded=0;orthogonalLoop=1;jettySize=auto;html=1;entryX=1;entryY=0.5;entryDx=0;entryDy=0;entryPerimeter=0;" edge="1" parent="1" source="SaRnsYtcrHhQaOOG1sa7-8" target="xGvc5hCl1qdH0Zedi4bK-20">
          <mxGeometry relative="1" as="geometry">
            <Array as="points">
              <mxPoint x="670" y="197" />
              <mxPoint x="670" y="635" />
            </Array>
          </mxGeometry>
        </mxCell>
        <mxCell id="SaRnsYtcrHhQaOOG1sa7-14" value="" style="endArrow=none;dashed=1;html=1;dashPattern=1 3;strokeWidth=2;rounded=0;entryX=0;entryY=0.5;entryDx=0;entryDy=0;" edge="1" parent="1" source="xGvc5hCl1qdH0Zedi4bK-5" target="SaRnsYtcrHhQaOOG1sa7-13">
          <mxGeometry width="50" height="50" relative="1" as="geometry">
            <mxPoint x="710" y="380" as="sourcePoint" />
            <mxPoint x="760" y="330" as="targetPoint" />
          </mxGeometry>
        </mxCell>
        <mxCell id="SaRnsYtcrHhQaOOG1sa7-15" value="mapping" style="edgeLabel;html=1;align=center;verticalAlign=middle;resizable=0;points=[];container=0;" vertex="1" connectable="0" parent="SaRnsYtcrHhQaOOG1sa7-14">
          <mxGeometry x="0.1821" y="1" relative="1" as="geometry">
            <mxPoint as="offset" />
          </mxGeometry>
        </mxCell>
        <mxCell id="SaRnsYtcrHhQaOOG1sa7-37" style="edgeStyle=orthogonalEdgeStyle;rounded=0;orthogonalLoop=1;jettySize=auto;html=1;" edge="1" parent="1" source="SaRnsYtcrHhQaOOG1sa7-35" target="xGvc5hCl1qdH0Zedi4bK-19">
          <mxGeometry relative="1" as="geometry" />
        </mxCell>
        <mxCell id="SaRnsYtcrHhQaOOG1sa7-30" style="edgeStyle=orthogonalEdgeStyle;rounded=0;orthogonalLoop=1;jettySize=auto;html=1;entryX=0.2;entryY=0.5;entryDx=0;entryDy=0;entryPerimeter=0;" edge="1" parent="1" source="xGvc5hCl1qdH0Zedi4bK-15" target="SaRnsYtcrHhQaOOG1sa7-29">
          <mxGeometry relative="1" as="geometry" />
        </mxCell>
        <mxCell id="SaRnsYtcrHhQaOOG1sa7-38" value="pacKage" style="sketch=0;pointerEvents=1;shadow=0;dashed=0;html=1;strokeColor=none;labelPosition=center;verticalLabelPosition=bottom;verticalAlign=top;outlineConnect=0;align=center;shape=mxgraph.office.concepts.folder;fillColor=#2072B8;container=0;" vertex="1" parent="1">
          <mxGeometry x="313.2772727272727" y="130" width="53.63636363636363" height="45" as="geometry" />
        </mxCell>
        <mxCell id="SaRnsYtcrHhQaOOG1sa7-40" value="sns-proxy lambda" style="outlineConnect=0;dashed=0;verticalLabelPosition=bottom;verticalAlign=top;align=center;html=1;shape=mxgraph.aws3.lambda_function;fillColor=#F58534;gradientColor=none;" vertex="1" parent="1">
          <mxGeometry x="40" y="609.75" width="50" height="50.25" as="geometry" />
        </mxCell>
        <mxCell id="SaRnsYtcrHhQaOOG1sa7-41" style="edgeStyle=orthogonalEdgeStyle;rounded=0;orthogonalLoop=1;jettySize=auto;html=1;entryX=0;entryY=0.5;entryDx=0;entryDy=0;entryPerimeter=0;" edge="1" parent="1" source="SaRnsYtcrHhQaOOG1sa7-40" target="xGvc5hCl1qdH0Zedi4bK-20">
          <mxGeometry relative="1" as="geometry" />
        </mxCell>
      </root>
    </mxGraphModel>
  </diagram>
</mxfile>
